<svg width="20" height="21" viewBox="0 0 20 21" fill="none" xmlns="http://www.w3.org/2000/svg">
<path d="M12.5 10.5C12.5 9.11925 11.3807 8 10 8C8.61925 8 7.5 9.11925 7.5 10.5C7.5 11.8807 8.61925 13 10 13C11.3807 13 12.5 11.8807 12.5 10.5Z" stroke="#555555" stroke-width="1.5"/>
<path d="M9.99998 4.6665C13.4848 4.6665 16.47 8.01085 17.7143 9.635C18.1095 10.1509 18.1095 10.8488 17.7143 11.3647C16.47 12.9888 13.4848 16.3332 9.99998 16.3332C6.51517 16.3332 3.52997 12.9888 2.28567 11.3647C1.89045 10.8488 1.89046 10.1509 2.28567 9.635C3.52997 8.01085 6.51517 4.6665 9.99998 4.6665Z" stroke="#555555" stroke-width="1.5" stroke-linejoin="round"/>
</svg>
